<?xml version="1.0" encoding="utf-8"?>
<!-- Generator: Adobe Illustrator 16.0.0, SVG Export Plug-In . SVG Version: 6.00 Build 0)  -->
<!DOCTYPE svg PUBLIC "-//W3C//DTD SVG 1.1//EN" "http://www.w3.org/Graphics/SVG/1.1/DTD/svg11.dtd">
<svg version="1.1" id="Layer_1" xmlns="http://www.w3.org/2000/svg" xmlns:xlink="http://www.w3.org/1999/xlink" x="0px" y="0px"
	 width="40px" height="40px" viewBox="0 0 40 40" enable-background="new 0 0 40 40" xml:space="preserve">
<path fill="#5C4B92" d="M19.999,1.806c3.301,0,6.345,0.812,9.133,2.44c2.788,1.626,4.996,3.833,6.622,6.621s2.44,5.832,2.44,9.132
	c0,3.301-0.814,6.345-2.44,9.133s-3.834,4.996-6.622,6.622s-5.832,2.44-9.133,2.44c-3.3,0-6.344-0.814-9.132-2.44
	s-4.995-3.834-6.621-6.622c-1.628-2.788-2.44-5.832-2.44-9.133c0-3.3,0.812-6.344,2.44-9.132c1.626-2.788,3.833-4.995,6.621-6.621
	C13.655,2.618,16.699,1.806,19.999,1.806z M26.49,14.148c-0.031,0.016-0.106,0.09-0.227,0.225c-0.115,0.135-0.225,0.21-0.316,0.225
	c0.029,0,0.064-0.039,0.104-0.117c0.039-0.079,0.079-0.166,0.119-0.261c0.038-0.096,0.065-0.149,0.082-0.166
	c0.096-0.109,0.271-0.229,0.521-0.354c0.223-0.097,0.632-0.189,1.231-0.284c0.538-0.127,0.94-0.04,1.209,0.26
	c-0.033-0.03,0.042-0.134,0.225-0.308s0.298-0.27,0.344-0.284c0.047-0.031,0.166-0.067,0.355-0.106
	c0.188-0.039,0.309-0.099,0.354-0.178l0.048-0.521c-0.19,0.016-0.327-0.039-0.415-0.165c-0.086-0.126-0.138-0.293-0.153-0.498
	c0,0.031-0.048,0.095-0.144,0.188c0-0.109-0.034-0.174-0.105-0.188c-0.07-0.018-0.161-0.008-0.271,0.023
	c-0.11,0.03-0.183,0.039-0.213,0.023c-0.159-0.048-0.277-0.107-0.356-0.179c-0.078-0.07-0.141-0.201-0.188-0.392
	c-0.048-0.189-0.078-0.308-0.096-0.354c-0.03-0.079-0.105-0.162-0.226-0.249c-0.118-0.087-0.193-0.169-0.225-0.248
	c-0.018-0.031-0.037-0.074-0.06-0.131c-0.022-0.056-0.048-0.105-0.071-0.153c-0.022-0.048-0.057-0.092-0.096-0.131
	c-0.04-0.039-0.082-0.06-0.129-0.06c-0.048,0-0.104,0.04-0.167,0.118c-0.064,0.079-0.122,0.158-0.178,0.237
	c-0.056,0.078-0.091,0.118-0.105,0.118c-0.048-0.031-0.096-0.044-0.143-0.035c-0.048,0.007-0.083,0.016-0.106,0.022
	c-0.022,0.008-0.061,0.031-0.107,0.07c-0.047,0.04-0.086,0.068-0.116,0.084c-0.048,0.03-0.115,0.055-0.203,0.071
	c-0.086,0.016-0.154,0.03-0.201,0.046c0.237-0.078,0.23-0.165-0.023-0.26c-0.157-0.063-0.283-0.087-0.38-0.071
	c0.145-0.062,0.201-0.158,0.179-0.284c-0.023-0.126-0.09-0.236-0.201-0.332h0.119c-0.018-0.062-0.083-0.13-0.201-0.201
	c-0.119-0.069-0.257-0.138-0.415-0.2c-0.158-0.063-0.26-0.11-0.308-0.143c-0.126-0.08-0.396-0.155-0.806-0.226
	c-0.412-0.071-0.672-0.074-0.782-0.012c-0.079,0.095-0.113,0.178-0.106,0.248c0.008,0.07,0.04,0.182,0.096,0.331
	c0.056,0.15,0.082,0.249,0.082,0.297c0.018,0.096-0.026,0.197-0.13,0.309c-0.103,0.111-0.153,0.205-0.153,0.284
	c0,0.109,0.109,0.231,0.331,0.367c0.222,0.135,0.301,0.304,0.237,0.51c-0.048,0.126-0.174,0.252-0.381,0.378
	c-0.204,0.127-0.331,0.222-0.378,0.285c-0.079,0.126-0.09,0.271-0.035,0.438c0.055,0.167,0.138,0.297,0.249,0.393
	c0.031,0.03,0.042,0.062,0.034,0.095c-0.007,0.032-0.034,0.067-0.082,0.105c-0.048,0.04-0.091,0.07-0.13,0.096
	c-0.04,0.022-0.092,0.051-0.155,0.083l-0.069,0.048c-0.174,0.078-0.337,0.031-0.486-0.144c-0.149-0.174-0.256-0.379-0.319-0.615
	c-0.11-0.396-0.236-0.633-0.379-0.71c-0.362-0.127-0.593-0.119-0.686,0.022c-0.081-0.206-0.404-0.411-0.974-0.616
	c-0.395-0.143-0.853-0.174-1.374-0.095c0.095-0.016,0.095-0.135,0-0.354c-0.11-0.237-0.261-0.331-0.45-0.284
	c0.049-0.095,0.079-0.232,0.096-0.415c0.016-0.182,0.023-0.288,0.023-0.319C18.555,9.3,18.65,9.118,18.792,8.96
	c0.016-0.016,0.07-0.083,0.165-0.201c0.095-0.119,0.17-0.225,0.226-0.319s0.061-0.143,0.013-0.143
	c0.553,0.063,0.946-0.022,1.185-0.261c0.079-0.079,0.17-0.213,0.272-0.403c0.103-0.188,0.187-0.324,0.248-0.401
	c0.144-0.096,0.253-0.14,0.33-0.13c0.081,0.007,0.194,0.051,0.346,0.13c0.148,0.077,0.265,0.118,0.344,0.118
	c0.221,0.017,0.344-0.07,0.367-0.261c0.022-0.189-0.036-0.348-0.178-0.474c0.188,0.015,0.213-0.119,0.069-0.404
	C22.1,6.103,22.037,6.03,21.991,5.998c-0.19-0.062-0.402-0.023-0.642,0.119c-0.126,0.062-0.108,0.126,0.049,0.189
	c-0.018-0.017-0.093,0.065-0.226,0.248c-0.134,0.183-0.266,0.319-0.392,0.414c-0.127,0.096-0.253,0.057-0.379-0.117
	c-0.017-0.018-0.061-0.122-0.132-0.32c-0.069-0.197-0.146-0.304-0.225-0.32c-0.126,0-0.253,0.119-0.379,0.356
	c0.048-0.126-0.039-0.245-0.261-0.356c-0.222-0.108-0.41-0.173-0.568-0.188c0.3-0.189,0.236-0.403-0.189-0.641
	c-0.11-0.062-0.271-0.103-0.485-0.119c-0.213-0.016-0.366,0.018-0.462,0.097c-0.078,0.109-0.122,0.201-0.13,0.271
	c-0.009,0.071,0.03,0.134,0.117,0.189c0.087,0.055,0.172,0.099,0.249,0.13c0.08,0.031,0.17,0.062,0.272,0.095
	s0.17,0.057,0.201,0.071c0.222,0.158,0.285,0.268,0.188,0.331c-0.03,0.017-0.099,0.044-0.201,0.083
	c-0.103,0.04-0.192,0.075-0.271,0.106s-0.126,0.063-0.142,0.095c-0.049,0.062-0.049,0.174,0,0.332
	c0.047,0.157,0.031,0.269-0.049,0.331c-0.077-0.078-0.149-0.218-0.213-0.414c-0.062-0.197-0.118-0.327-0.166-0.392
	c0.111,0.143-0.087,0.189-0.593,0.143l-0.236-0.023c-0.062,0-0.188,0.018-0.379,0.048c-0.188,0.032-0.352,0.039-0.484,0.023
	c-0.136-0.017-0.241-0.078-0.32-0.189c-0.063-0.126-0.063-0.284,0-0.474c0.016-0.063,0.048-0.079,0.095-0.048
	c-0.062-0.047-0.148-0.122-0.261-0.226c-0.11-0.103-0.189-0.17-0.236-0.2c-0.727,0.235-1.47,0.561-2.228,0.972
	c0.095,0.015,0.189,0.007,0.284-0.024c0.078-0.031,0.183-0.083,0.309-0.153s0.205-0.114,0.237-0.131
	c0.536-0.222,0.866-0.275,0.995-0.166l0.116-0.117c0.223,0.253,0.38,0.448,0.476,0.593c-0.111-0.063-0.349-0.072-0.711-0.024
	c-0.315,0.096-0.489,0.189-0.521,0.284c0.11,0.189,0.15,0.332,0.119,0.427c-0.062-0.048-0.155-0.126-0.271-0.236
	c-0.119-0.11-0.233-0.197-0.346-0.262c-0.109-0.062-0.229-0.102-0.354-0.117c-0.252,0-0.426,0.008-0.521,0.022
	c-2.306,1.265-4.162,3.018-5.566,5.261c0.109,0.109,0.206,0.174,0.283,0.188c0.063,0.016,0.104,0.087,0.119,0.214
	c0.017,0.126,0.035,0.213,0.061,0.26c0.021,0.048,0.114,0.023,0.271-0.069c0.144,0.126,0.166,0.274,0.071,0.448
	c0.016-0.016,0.363,0.198,1.043,0.641c0.3,0.269,0.466,0.435,0.497,0.498c0.047,0.174-0.031,0.314-0.236,0.426
	c-0.017-0.031-0.087-0.103-0.214-0.213s-0.197-0.143-0.214-0.095c-0.046,0.079-0.043,0.226,0.012,0.438
	c0.058,0.213,0.14,0.312,0.249,0.297c-0.109,0-0.186,0.126-0.225,0.378c-0.039,0.253-0.059,0.533-0.059,0.842
	s-0.01,0.493-0.023,0.557l0.046,0.023c-0.046,0.189-0.003,0.463,0.131,0.817c0.136,0.355,0.305,0.509,0.511,0.462
	c-0.206,0.047-0.049,0.387,0.474,1.02c0.095,0.126,0.157,0.196,0.188,0.213c0.049,0.031,0.143,0.091,0.284,0.178
	c0.143,0.087,0.261,0.166,0.355,0.237c0.095,0.069,0.174,0.152,0.235,0.249c0.063,0.078,0.144,0.256,0.237,0.53
	c0.095,0.278,0.206,0.464,0.332,0.56c-0.032,0.095,0.043,0.252,0.225,0.474c0.183,0.222,0.266,0.402,0.249,0.545
	c-0.016,0-0.034,0.009-0.06,0.023c-0.023,0.015-0.043,0.023-0.06,0.023c0.048,0.109,0.171,0.221,0.367,0.331
	c0.197,0.109,0.319,0.212,0.366,0.309c0.018,0.047,0.032,0.126,0.048,0.236c0.017,0.109,0.039,0.197,0.071,0.261
	c0.031,0.063,0.095,0.079,0.189,0.048c0.03-0.316-0.158-0.805-0.569-1.469c-0.236-0.396-0.37-0.624-0.402-0.688
	c-0.047-0.08-0.09-0.203-0.13-0.367c-0.04-0.167-0.074-0.279-0.105-0.344c0.031,0,0.077,0.012,0.142,0.034s0.131,0.053,0.202,0.084
	c0.07,0.031,0.13,0.062,0.178,0.096c0.047,0.03,0.062,0.055,0.047,0.069c-0.047,0.11-0.03,0.248,0.047,0.415
	c0.08,0.166,0.175,0.312,0.284,0.438c0.111,0.126,0.245,0.275,0.403,0.449s0.253,0.276,0.284,0.308
	c0.095,0.096,0.206,0.249,0.332,0.464c0.126,0.212,0.126,0.317,0,0.317c0.142,0,0.3,0.08,0.474,0.237
	c0.174,0.158,0.31,0.316,0.402,0.475c0.08,0.126,0.143,0.331,0.188,0.616c0.048,0.283,0.088,0.474,0.119,0.567
	c0.031,0.11,0.1,0.218,0.201,0.318c0.103,0.104,0.201,0.178,0.296,0.227l0.379,0.189l0.31,0.166
	c0.078,0.031,0.225,0.113,0.438,0.249c0.214,0.134,0.384,0.226,0.51,0.271c0.158,0.063,0.284,0.096,0.379,0.096
	c0.096,0,0.209-0.021,0.345-0.059c0.135-0.041,0.239-0.068,0.319-0.083c0.236-0.032,0.467,0.086,0.688,0.354
	c0.222,0.27,0.387,0.435,0.498,0.497c0.566,0.3,1.002,0.387,1.303,0.26c-0.031,0.018-0.027,0.075,0.011,0.179
	c0.04,0.103,0.104,0.225,0.19,0.366c0.086,0.145,0.157,0.258,0.212,0.346c0.057,0.086,0.1,0.152,0.132,0.2
	c0.079,0.096,0.223,0.212,0.427,0.354c0.205,0.142,0.348,0.262,0.427,0.354c0.095-0.062,0.149-0.134,0.166-0.213
	c-0.047,0.127,0.008,0.284,0.165,0.475c0.158,0.188,0.3,0.27,0.426,0.235c0.222-0.048,0.333-0.3,0.333-0.757
	c-0.49,0.235-0.878,0.095-1.161-0.427c0-0.018-0.021-0.061-0.059-0.13c-0.04-0.071-0.071-0.14-0.096-0.201
	c-0.023-0.064-0.044-0.132-0.059-0.203c-0.018-0.069-0.018-0.13,0-0.178c0.015-0.047,0.055-0.069,0.116-0.069
	c0.144,0,0.222-0.028,0.237-0.084c0.016-0.055,0-0.152-0.048-0.296c-0.047-0.142-0.078-0.245-0.095-0.308
	c-0.017-0.126-0.103-0.284-0.26-0.475c-0.159-0.189-0.254-0.308-0.285-0.354c-0.079,0.142-0.205,0.205-0.379,0.188
	c-0.174-0.015-0.3-0.086-0.379-0.212c0,0.016-0.014,0.06-0.036,0.13c-0.023,0.071-0.035,0.122-0.035,0.153
	c-0.205,0-0.324-0.007-0.355-0.022c0.017-0.049,0.036-0.186,0.061-0.413c0.023-0.23,0.052-0.408,0.083-0.534
	c0.016-0.062,0.059-0.158,0.131-0.284c0.069-0.126,0.13-0.241,0.178-0.344c0.047-0.104,0.078-0.201,0.096-0.296
	c0.015-0.097-0.021-0.171-0.107-0.227c-0.086-0.055-0.225-0.075-0.414-0.059c-0.3,0.015-0.506,0.174-0.617,0.474
	c-0.015,0.048-0.039,0.13-0.069,0.249c-0.031,0.117-0.071,0.209-0.118,0.272c-0.048,0.062-0.118,0.116-0.214,0.165
	c-0.11,0.048-0.301,0.062-0.568,0.048c-0.269-0.016-0.458-0.057-0.568-0.119c-0.206-0.126-0.383-0.355-0.532-0.688
	c-0.15-0.332-0.226-0.623-0.226-0.876c0-0.159,0.021-0.366,0.061-0.627c0.039-0.262,0.062-0.46,0.069-0.593
	c0.009-0.136-0.034-0.328-0.13-0.58c0.047-0.033,0.118-0.107,0.213-0.228c0.096-0.116,0.174-0.201,0.236-0.246
	c0.032-0.018,0.068-0.029,0.107-0.037c0.039-0.007,0.074-0.007,0.105,0c0.031,0.008,0.062-0.004,0.095-0.034
	c0.031-0.033,0.056-0.079,0.071-0.144c-0.017-0.017-0.048-0.04-0.095-0.071c-0.048-0.047-0.079-0.071-0.097-0.071
	c0.111,0.048,0.337,0.037,0.678-0.034c0.339-0.07,0.556-0.061,0.649,0.034c0.237,0.174,0.411,0.159,0.521-0.047
	c0-0.015-0.021-0.09-0.061-0.226c-0.038-0.135-0.044-0.239-0.012-0.318c0.079,0.427,0.31,0.496,0.688,0.213
	c0.047,0.047,0.169,0.087,0.366,0.118s0.335,0.071,0.415,0.119c0.049,0.031,0.104,0.075,0.165,0.13
	c0.063,0.055,0.107,0.09,0.13,0.105c0.023,0.018,0.063,0.014,0.118-0.012c0.056-0.022,0.123-0.074,0.201-0.155
	c0.159,0.223,0.253,0.412,0.285,0.569c0.174,0.633,0.324,0.979,0.45,1.043c0.109,0.047,0.196,0.063,0.26,0.047
	c0.064-0.017,0.099-0.091,0.107-0.225c0.008-0.134,0.008-0.245,0-0.331c-0.01-0.088-0.021-0.188-0.036-0.297l-0.023-0.189v-0.427
	l-0.022-0.19c-0.236-0.046-0.384-0.141-0.438-0.282c-0.057-0.144-0.044-0.289,0.034-0.439c0.079-0.148,0.198-0.295,0.354-0.438
	c0.018-0.017,0.078-0.043,0.19-0.082c0.109-0.04,0.231-0.093,0.367-0.154c0.134-0.063,0.231-0.127,0.295-0.189
	c0.333-0.301,0.451-0.575,0.355-0.83c0.109,0,0.197-0.069,0.261-0.213c-0.016,0-0.056-0.022-0.119-0.069
	c-0.062-0.048-0.12-0.087-0.178-0.119c-0.056-0.031-0.09-0.047-0.105-0.047c0.143-0.079,0.157-0.205,0.048-0.38
	c0.078-0.048,0.137-0.135,0.177-0.261c0.041-0.126,0.1-0.205,0.179-0.236c0.143,0.188,0.31,0.206,0.497,0.048
	c0.111-0.126,0.118-0.253,0.023-0.38c0.078-0.109,0.241-0.192,0.486-0.249c0.243-0.056,0.39-0.131,0.438-0.226
	c0.111,0.032,0.174,0.018,0.19-0.047c0.015-0.062,0.022-0.158,0.022-0.284s0.023-0.222,0.071-0.284
	c0.062-0.078,0.182-0.149,0.355-0.214c0.174-0.062,0.274-0.102,0.307-0.117l0.402-0.261c0.048-0.063,0.048-0.096,0-0.096
	c0.285,0.031,0.53-0.055,0.734-0.261c0.158-0.174,0.11-0.332-0.143-0.475c0.048-0.095,0.023-0.17-0.071-0.225
	s-0.212-0.099-0.354-0.131c0.049-0.017,0.14-0.021,0.272-0.011c0.134,0.007,0.218-0.006,0.249-0.036
	c0.235-0.158,0.181-0.284-0.167-0.38C27.24,13.785,26.901,13.88,26.49,14.148z M22.628,34.925c3.255-0.567,6.026-2.062,8.316-4.478
	c-0.048-0.048-0.146-0.083-0.296-0.106c-0.15-0.022-0.25-0.051-0.298-0.084c-0.282-0.108-0.474-0.174-0.567-0.188
	c0.017-0.111-0.004-0.214-0.06-0.311c-0.055-0.093-0.119-0.164-0.189-0.212c-0.069-0.048-0.168-0.111-0.295-0.189
	c-0.126-0.078-0.214-0.134-0.262-0.164c-0.03-0.033-0.087-0.079-0.167-0.144c-0.078-0.063-0.134-0.105-0.164-0.13
	c-0.03-0.023-0.092-0.061-0.178-0.107c-0.088-0.047-0.153-0.062-0.201-0.047s-0.127,0.024-0.237,0.024l-0.071,0.021
	c-0.048,0.018-0.09,0.037-0.13,0.062c-0.04,0.023-0.082,0.048-0.13,0.071c-0.048,0.022-0.078,0.048-0.095,0.07
	c-0.018,0.023-0.018,0.042,0,0.06c-0.331-0.27-0.617-0.442-0.854-0.521c-0.079-0.017-0.167-0.059-0.262-0.13
	s-0.179-0.126-0.249-0.166c-0.069-0.039-0.149-0.052-0.236-0.035c-0.087,0.016-0.177,0.071-0.271,0.165
	c-0.078,0.08-0.126,0.197-0.144,0.356c-0.015,0.156-0.031,0.26-0.047,0.308c-0.11-0.079-0.11-0.218,0-0.416
	c0.111-0.197,0.126-0.342,0.047-0.437c-0.047-0.097-0.13-0.131-0.249-0.108c-0.116,0.023-0.212,0.062-0.283,0.108
	c-0.07,0.047-0.163,0.112-0.271,0.2c-0.109,0.087-0.182,0.138-0.214,0.153c-0.031,0.018-0.1,0.06-0.201,0.13
	c-0.103,0.071-0.169,0.13-0.201,0.179c-0.048,0.062-0.096,0.158-0.142,0.284c-0.047,0.126-0.087,0.212-0.118,0.261
	c-0.031-0.062-0.123-0.113-0.272-0.153c-0.149-0.041-0.226-0.083-0.226-0.13c0.031,0.156,0.062,0.434,0.096,0.828
	c0.03,0.396,0.069,0.694,0.116,0.899c0.112,0.49,0.017,0.869-0.283,1.139c-0.426,0.396-0.655,0.71-0.688,0.946
	c-0.062,0.349,0.031,0.554,0.285,0.617c0,0.109-0.064,0.271-0.19,0.484s-0.181,0.383-0.164,0.509
	C22.583,34.64,22.598,34.767,22.628,34.925z"/>
</svg>
